<svg xmlns="http://www.w3.org/2000/svg" viewBox="0 0 44.89 44.91"><title>upstateplaid</title><polygon points="28.05 42.26 25.08 39.3 22.43 36.65 22.43 39.3 28.05 44.91 30.69 44.91 28.05 42.26 28.05 42.26" style="fill:#050505"/><polygon points="22.43 44.91 25.08 44.91 22.43 42.26 22.43 44.91" style="fill:#050505"/><polygon points="33.66 42.26 25.08 33.68 22.43 31.04 22.43 33.68 28.05 39.3 33.66 44.91 36.31 44.91 33.66 42.26 33.66 42.26" style="fill:#050505"/><polygon points="39.27 42.26 36.31 39.3 33.66 36.65 33.66 36.65 30.69 33.68 28.05 31.04 22.43 25.42 22.43 28.07 28.05 33.68 33.66 39.3 39.27 44.91 41.92 44.91 39.27 42.26 39.27 42.26" style="fill:#050505"/><polygon points="-0.02 2.65 19.79 22.45 22.43 22.45 -0.02 0 -0.02 2.65" style="fill:#050505"/><polygon points="-0.02 8.26 14.17 22.45 16.82 22.45 -0.02 5.61 -0.02 8.26" style="fill:#050505"/><polygon points="-0.02 19.49 2.95 22.45 5.59 22.45 -0.02 16.84 -0.02 19.49" style="fill:#050505"/><polygon points="-0.02 13.87 8.56 22.45 11.21 22.45 -0.02 11.23 -0.02 13.87" style="fill:#050505"/><polygon points="44.93 0 19.79 0 22.43 2.65 22.43 5.61 16.82 0 14.17 0 22.43 8.26 22.43 11.23 11.21 0 8.56 0 22.43 13.87 22.43 16.84 5.59 0 2.95 0 22.43 19.49 22.43 22.45 28.05 28.07 29.92 29.94 44.89 44.91 44.89 42.26 41.92 39.3 39.27 36.65 39.27 36.65 36.31 33.68 34.54 31.92 30.69 28.07 28.73 26.1 25.08 22.45 28.05 22.45 44.89 39.3 44.89 36.65 39.27 31.04 36.31 28.07 33.66 25.42 30.69 22.45 33.66 22.45 44.89 33.68 44.89 31.04 39.27 25.42 36.31 22.45 39.27 22.45 44.89 28.07 44.89 25.42 41.92 22.45 44.93 22.45 44.93 0" style="fill:#050505"/></svg>