<?xml version="1.0" standalone="no"?>
<!DOCTYPE svg PUBLIC "-//W3C//DTD SVG 20010904//EN"
 "http://www.w3.org/TR/2001/REC-SVG-20010904/DTD/svg10.dtd">
<svg version="1.0" xmlns="http://www.w3.org/2000/svg"
 width="360.000000pt" height="360.000000pt" viewBox="0 0 360.000000 360.000000"
 preserveAspectRatio="xMidYMid meet">
<metadata>
Created by potrace 1.11, written by Peter Selinger 2001-2013
</metadata>
<g transform="translate(0.000000,360.000000) scale(0.100000,-0.100000)"
fill="#000000" stroke="none">
<path d="M0 3495 l0 -110 793 -793 792 -792 105 0 105 0 902 -902 903 -903 0
110 0 110 -792 792 -793 793 115 0 115 0 677 -677 678 -678 0 110 0 110 -567
567 -568 568 115 0 115 0 452 -452 453 -453 0 110 0 110 -342 342 -343 343
115 0 115 0 227 -227 228 -228 0 110 0 110 -117 117 -118 118 118 0 117 0 0
900 0 900 -1007 0 -1008 0 108 -108 107 -107 0 -115 0 -115 -223 223 -222 222
-110 0 -110 0 333 -333 332 -332 0 -115 0 -115 -448 448 -447 447 -110 0 -110
0 558 -558 557 -557 0 -115 0 -115 -673 673 -672 672 -110 0 -110 0 783 -783
782 -782 0 -115 0 -115 -900 900 -900 900 0 -110z"/>
<path d="M0 3045 l0 -110 568 -568 568 -568 107 3 107 3 -675 675 -675 675 0
-110z"/>
<path d="M0 2595 l0 -110 343 -343 343 -343 107 3 107 3 -450 450 -450 450 0
-110z"/>
<path d="M0 2145 l0 -110 118 -118 118 -118 107 3 107 3 -225 225 -225 225 0
-110z"/>
<path d="M1800 1455 l0 -110 673 -673 673 -673 107 3 107 3 -780 780 -780 780
0 -110z"/>
<path d="M1800 1005 l0 -110 448 -448 448 -448 107 3 107 3 -555 555 -555 555
0 -110z"/>
<path d="M1800 555 l0 -110 223 -223 223 -223 107 3 107 3 -330 330 -330 330
0 -110z"/>
<path d="M1800 107 l0 -107 105 0 c58 0 105 1 105 3 0 1 -47 49 -105 107
l-105 105 0 -108z"/>
</g>
</svg>
